<svg width="192" height="40" viewBox="0 0 192 40" fill="none" xmlns="http://www.w3.org/2000/svg">
<path fill-rule="evenodd" clip-rule="evenodd" d="M52.6937 25.2423C52.3899 25.1663 52.1367 25.0904 51.9088 24.9891C51.7403 24.9142 51.5995 24.8255 51.4762 24.723C51.3942 24.6548 51.3591 24.5475 51.3693 24.4414C51.4914 23.1693 51.357 22.0473 51.4783 20.7858C51.9847 15.6708 55.2006 17.2914 58.0872 16.4558C59.7448 15.9889 61.4024 15.0699 62.0081 13.2622C62.1073 12.9663 62.02 12.6445 61.8139 12.4102C59.923 10.2602 57.8296 8.36047 55.555 6.7324C47.9296 1.30326 38.0193 -0.951171 28.9182 0.367573C28.5734 0.417531 28.3927 0.799477 28.5811 1.09256C29.7337 2.88624 31.2544 4.35413 32.9983 5.43456C33.3152 5.6309 33.1879 6.05504 32.8241 5.97348C31.9689 5.78172 30.87 5.40776 29.8365 4.67845C29.7369 4.60817 29.6086 4.59047 29.4953 4.63562C29.0333 4.81987 28.3661 5.08554 27.8148 5.32355C27.4974 5.46056 27.4328 5.86986 27.694 6.09629C32.2653 10.0587 38.9153 10.661 44.1225 7.49015C44.4397 7.29698 44.9476 7.69392 44.8454 8.05098C44.6817 8.62295 44.4906 9.40919 44.2871 10.48C42.9957 17.0129 39.2734 16.5064 34.6649 14.8606C25.4563 11.523 20.2322 14.3731 15.5875 8.73124C15.2648 8.33922 14.6974 8.20331 14.3135 8.53568C13.3548 9.3658 12.7873 10.5775 12.7873 11.8726C12.7873 13.4067 13.5791 14.7207 14.7529 15.5073C14.8997 15.6057 15.0948 15.5641 15.2043 15.4254C15.4903 15.0634 15.7243 14.8235 16.0156 14.6717C16.3345 14.5056 16.49 14.9618 16.2208 15.2001C15.2344 16.0736 14.9512 17.114 14.3066 19.1652C13.2937 22.381 13.7242 25.6728 8.98908 26.5337C6.48227 26.6603 6.53291 28.3568 5.62134 30.889C4.56341 33.9452 3.17808 35.2989 0.614191 37.9696C0.263533 38.3349 0.233463 38.9189 0.618832 39.2474C1.64298 40.1202 2.69918 40.1682 3.77288 39.7261C6.43162 38.612 8.48265 35.1683 10.4071 32.94C12.5594 30.4585 17.7249 31.522 21.6244 29.0912C23.7275 27.8016 24.9911 26.1544 24.587 23.6869C24.5219 23.2894 24.9767 23.0506 25.1416 23.418C25.4547 24.1155 25.66 24.8596 25.7453 25.6283C25.7676 25.8299 25.9478 25.979 26.1502 25.9676C30.3691 25.7304 35.8249 30.3838 40.9235 31.6429C41.2337 31.7194 41.4541 31.3612 41.2788 31.0942C40.9562 30.603 40.682 30.0932 40.4635 29.5723C40.238 29.0311 40.0672 28.506 39.9463 27.9992C39.8518 27.6028 40.4309 27.4963 40.6286 27.8527C41.9362 30.2097 44.5495 32.423 48.1865 32.6868C49.4273 32.7881 50.7946 32.6361 52.2126 32.2057C53.9092 31.6993 55.4791 31.0409 57.3529 31.3954C58.7455 31.6486 60.0369 32.3576 60.8472 33.5477C61.9842 35.2059 64.3843 35.6452 65.6636 33.9122C65.8377 33.6764 65.8523 33.3611 65.7373 33.0915C62.9205 26.4892 55.768 26.0357 52.6937 25.2423Z" fill="white"/>
<path d="M91.6328 10.7853C91.7135 10.3409 92.0821 10.0057 92.5322 9.96759L95.9539 9.67762C96.0426 9.6701 96.1313 9.69244 96.2059 9.74109C96.3404 9.82877 96.4093 9.98839 96.381 10.1464L92.9427 29.3065C92.8572 29.7831 92.4425 30.1299 91.9584 30.1299H89.3704C89.1392 30.1299 88.9638 29.9215 89.0032 29.6937C89.064 29.3423 88.6271 29.0965 88.3349 29.301C87.1966 30.0977 85.944 30.4961 84.5771 30.4961C82.6826 30.4961 81.1152 29.8174 79.875 28.46C78.625 27.1025 78 25.4473 78 23.4941C78 20.9941 78.7715 18.9141 80.3145 17.2539C81.8574 15.5938 83.8203 14.7637 86.2031 14.7637C87.6382 14.7637 88.8509 15.1386 89.841 15.8884C90.1703 16.1378 90.6889 15.9823 90.7627 15.5759L91.6328 10.7853ZM85.8369 26.585C87.0088 26.585 87.9707 26.165 88.7227 25.3252C89.4551 24.4854 89.8213 23.4551 89.8213 22.2344C89.8213 21.1699 89.5234 20.3105 88.9277 19.6562C88.332 19.002 87.5508 18.6748 86.584 18.6748C85.4023 18.6748 84.4453 19.0947 83.7129 19.9346C82.9707 20.7646 82.5996 21.7949 82.5996 23.0254C82.5996 24.0801 82.9023 24.9395 83.5078 25.6035C84.1035 26.2578 84.8799 26.585 85.8369 26.585Z" fill="white"/>
<path d="M101.43 12.7275C100.737 12.7275 100.137 12.4834 99.6287 11.9951C99.1307 11.5068 98.8816 10.9111 98.8816 10.208C98.8816 9.31934 99.2088 8.5625 99.8631 7.9375C100.498 7.3125 101.264 7 102.163 7C102.846 7 103.437 7.25391 103.935 7.76172C104.433 8.2793 104.682 8.875 104.682 9.54883C104.682 10.4277 104.36 11.1748 103.716 11.79C103.081 12.415 102.319 12.7275 101.43 12.7275ZM100.949 29.3077C100.863 29.7837 100.449 30.1299 99.9651 30.1299H97.382C96.759 30.1299 96.2876 29.5663 96.3978 28.953L98.7337 15.953C98.8193 15.4766 99.2339 15.1299 99.718 15.1299H102.314C102.937 15.1299 103.409 15.6942 103.298 16.3077L100.949 29.3077Z" fill="white"/>
<path d="M117.141 15.2007C117.255 15.2475 117.342 15.3401 117.388 15.4541C117.436 15.5745 117.433 15.7093 117.379 15.8271L116.011 18.8118C115.965 18.9129 115.886 18.9956 115.788 19.0467C115.636 19.1253 115.456 19.1182 115.302 19.0452C114.828 18.8207 114.309 18.7168 113.743 18.7334C112.512 18.7334 111.565 19.2314 110.901 20.2275C110.657 20.6084 110.393 21.4971 110.11 22.8936L108.994 29.3014C108.911 29.7803 108.495 30.1299 108.009 30.1299H105.402C104.779 30.1299 104.308 29.5663 104.418 28.953L106.754 15.953C106.84 15.4766 107.254 15.1299 107.738 15.1299H109.944C110.36 15.1299 110.676 15.5043 110.606 15.9146C110.548 16.2565 111.018 16.4804 111.277 16.2501C111.513 16.0413 111.753 15.8583 112 15.7012C112.918 15.0957 113.899 14.7832 114.944 14.7637C115.701 14.7637 116.434 14.9093 117.141 15.2007Z" fill="white"/>
<path d="M125.132 14.7637C127.525 14.7637 129.327 15.5303 130.537 17.0635C131.748 18.5967 132.134 20.4424 131.695 22.6006C131.675 22.7259 131.648 22.8575 131.612 22.9954C131.509 23.3992 131.126 23.6553 130.709 23.6553H121.508C120.983 23.6553 120.527 24.0659 120.607 24.5847C120.709 25.2456 120.992 25.7806 121.455 26.1895C122.11 26.7754 122.964 27.0684 124.019 27.0684C125.506 27.0684 126.842 26.5492 128.026 25.5108C128.097 25.4486 128.187 25.4131 128.282 25.4131C128.393 25.4131 128.499 25.4622 128.571 25.5472L130.006 27.2445C130.092 27.3465 130.129 27.4812 130.107 27.613C130.092 27.7066 130.047 27.7933 129.979 27.8594C128.191 29.598 125.984 30.4769 123.36 30.4961C121.143 30.4961 119.351 29.793 117.984 28.3867C116.607 26.9902 115.992 25.2031 116.138 23.0254C116.197 21.5312 116.607 20.1738 117.369 18.9531C118.111 17.7422 119.117 16.7754 120.386 16.0527C121.831 15.1934 123.413 14.7637 125.132 14.7637ZM121.576 19.7235C121.21 20.2863 121.693 20.9453 122.364 20.9453H126.556C127.088 20.9453 127.551 20.5197 127.426 20.0026C127.338 19.6429 127.184 19.3175 126.963 19.0264C126.475 18.3623 125.723 18.0352 124.707 18.0449C123.799 18.0449 123.018 18.3037 122.364 18.8213C122.058 19.0846 121.795 19.3854 121.576 19.7235Z" fill="white"/>
<path d="M140.433 30.4961C138.284 30.4961 136.531 29.8174 135.174 28.46C133.807 27.1123 133.123 25.3691 133.123 23.2305C133.123 21.834 133.431 20.5449 134.046 19.3633C134.661 18.1719 135.521 17.1904 136.624 16.4189C138.226 15.3154 140.008 14.7637 141.971 14.7637C144.559 14.7637 146.544 15.624 147.926 17.3445C148.006 17.4433 148.03 17.5746 147.997 17.6968C147.974 17.7802 147.926 17.8543 147.858 17.9082L145.169 20.0543C145.099 20.1096 145.013 20.1396 144.925 20.1396C144.799 20.1396 144.682 20.0783 144.604 19.98C143.912 19.1099 142.98 18.6748 141.81 18.6748C140.677 18.6748 139.739 19.0215 138.997 19.7148C138.138 20.5352 137.708 21.6191 137.708 22.9668C137.708 24.0605 138.021 24.9346 138.646 25.5889C139.261 26.2529 140.086 26.585 141.121 26.585C142.194 26.585 143.146 26.193 143.979 25.4089C144.054 25.3377 144.153 25.2959 144.257 25.2959C144.368 25.2959 144.474 25.3432 144.549 25.4261L146.449 27.546C146.535 27.6421 146.572 27.7725 146.55 27.8996C146.535 27.9877 146.492 28.069 146.427 28.1302C144.748 29.7075 142.75 30.4961 140.433 30.4961Z" fill="white"/>
<path d="M160.449 17.7163C160.365 18.1944 159.95 18.543 159.464 18.543H156.819C156.335 18.543 155.92 18.8896 155.834 19.366L154.913 24.4902C154.659 25.8672 155.118 26.5557 156.29 26.5557C156.777 26.5557 157.242 26.4096 157.685 26.1176C157.8 26.0414 157.95 26.0325 158.067 26.1053C158.14 26.15 158.192 26.2204 158.214 26.3023L158.857 28.6973C158.902 28.8645 158.879 29.0425 158.795 29.1935C158.747 29.2796 158.68 29.3543 158.598 29.4095C157.525 30.1339 156.316 30.4961 154.972 30.4961C153.351 30.4961 152.081 30.0273 151.163 29.0898C150.245 28.1719 149.942 26.79 150.255 24.9443L151.211 19.723C151.323 19.1089 150.851 18.543 150.227 18.543H150.04C149.418 18.543 148.947 17.9819 149.055 17.3697L149.304 15.9566C149.388 15.4785 149.803 15.1299 150.289 15.1299H151.219C151.704 15.1299 152.119 14.7823 152.203 14.3051L152.728 11.3589C152.807 10.9133 153.176 10.5766 153.627 10.5378L156.988 10.2491C157.077 10.2414 157.166 10.2637 157.24 10.3123C157.374 10.4 157.443 10.5597 157.415 10.7176L156.827 13.951C156.715 14.5648 157.187 15.1299 157.811 15.1299H159.713C160.335 15.1299 160.806 15.691 160.698 16.3032L160.449 17.7163Z" fill="white"/>
<path d="M171.137 23.9775L172.571 15.9539C172.656 15.477 173.071 15.1299 173.556 15.1299H176.124C176.746 15.1299 177.218 15.6928 177.108 16.3058L174.785 29.3058C174.7 29.7827 174.285 30.1299 173.8 30.1299H171.259C171.02 30.1299 170.838 29.9134 170.881 29.6777C170.945 29.3178 170.503 29.0634 170.202 29.2715C169.022 30.0879 167.762 30.4961 166.42 30.4961C164.623 30.4961 163.265 29.9053 162.347 28.7236C161.429 27.542 161.137 25.9697 161.469 24.0068L162.917 15.9529C163.003 15.4765 163.417 15.1299 163.901 15.1299H166.513C167.136 15.1299 167.608 15.6935 167.497 16.3067L166.156 23.7725C166.019 24.6221 166.122 25.3008 166.464 25.8086C166.805 26.3066 167.343 26.5557 168.075 26.5557C169.1 26.5557 169.901 26.1748 170.477 25.4131C170.78 25.0811 171 24.6025 171.137 23.9775Z" fill="white"/>
<path d="M183.698 30.5254C182.213 30.5254 180.895 30.2666 179.743 29.749C178.632 29.2718 177.832 28.6567 177.343 27.9035C177.282 27.8103 177.263 27.6967 177.283 27.5873C177.301 27.4881 177.351 27.3975 177.425 27.329L179.673 25.2413C179.737 25.1823 179.82 25.1494 179.907 25.1494C180.024 25.1494 180.131 25.2096 180.202 25.3024C180.533 25.7379 181.049 26.1264 181.75 26.4678C182.521 26.8486 183.293 27.0391 184.064 27.0391C184.67 27.0391 185.138 26.9219 185.47 26.6875C185.812 26.4531 185.983 26.1309 185.983 25.7207C185.983 25.4766 185.89 25.252 185.705 25.0469C185.529 24.832 185.314 24.6611 185.06 24.5342C184.728 24.3779 184.406 24.2412 184.093 24.124C183.459 23.9092 182.907 23.6943 182.438 23.4795C182.008 23.2744 181.545 23.001 181.046 22.6592C180.05 21.9561 179.552 20.9746 179.552 19.7148C179.552 18.25 180.148 17.0537 181.339 16.126C182.531 15.1982 184.098 14.7344 186.042 14.7344C187.311 14.7344 188.483 14.9541 189.557 15.3936C190.542 15.8039 191.284 16.3548 191.784 17.0462C191.852 17.1405 191.875 17.259 191.855 17.3736C191.837 17.4763 191.785 17.5698 191.707 17.6388L189.543 19.5519C189.467 19.6191 189.369 19.6562 189.268 19.6562C189.145 19.6562 189.029 19.6011 188.946 19.5107C188.559 19.0916 188.094 18.7593 187.55 18.5137C186.945 18.2402 186.339 18.1035 185.734 18.1035C185.207 18.1035 184.787 18.2109 184.474 18.4258C184.162 18.6309 184.005 18.9043 184.005 19.2461C184.005 19.4609 184.098 19.6416 184.284 19.7881C184.518 19.9834 184.777 20.1396 185.06 20.2568C185.109 20.2764 185.251 20.3398 185.485 20.4473C185.729 20.5449 185.954 20.6328 186.159 20.7109C186.422 20.8184 186.642 20.9062 186.818 20.9746C188.029 21.5215 188.927 22.1367 189.513 22.8203C190.099 23.4941 190.392 24.3389 190.392 25.3545C190.392 26.9365 189.777 28.1914 188.546 29.1191C187.316 30.0566 185.7 30.5254 183.698 30.5254Z" fill="white"/>
</svg>
