<svg width="48" height="49" viewBox="0 0 48 49" fill="none" xmlns="http://www.w3.org/2000/svg">
<g id="Group 5599">
<circle id="Ellipse 1197" cx="24" cy="24.6206" r="24" fill="#F0F4F9"/>
<g id="cruelty_free">
<mask id="mask0_6600_4351" style="mask-type:alpha" maskUnits="userSpaceOnUse" x="12" y="12" width="24" height="25">
<rect id="Bounding box" x="12" y="12.6206" width="24" height="24" fill="#D9D9D9"/>
</mask>
<g mask="url(#mask0_6600_4351)">
<path id="cruelty_free_2" d="M21.5 34.6206C20.25 34.6206 19.1875 34.1831 18.3125 33.3081C17.4375 32.4331 17 31.3706 17 30.1206C17 29.5373 17.1417 28.9998 17.425 28.5081C17.7083 28.0164 18.2333 27.3873 19 26.6206C19.1 26.5206 19.1958 26.4164 19.2875 26.3081C19.3792 26.1998 19.5 26.0539 19.65 25.8706C18.8 24.5706 18.1458 23.2081 17.6875 21.7831C17.2292 20.3581 17 18.9706 17 17.6206C17 16.6539 17.175 15.9123 17.525 15.3956C17.875 14.8789 18.3667 14.6206 19 14.6206C19.95 14.6206 20.8 15.0789 21.55 15.9956C22.3 16.9123 22.8667 17.7539 23.25 18.5206C23.4 18.8539 23.5375 19.1914 23.6625 19.5331C23.7875 19.8748 23.9 20.2289 24 20.5956C24.1 20.2289 24.2125 19.8748 24.3375 19.5331C24.4625 19.1914 24.6083 18.8539 24.775 18.5206C25.1417 17.7539 25.7 16.9123 26.45 15.9956C27.2 15.0789 28.05 14.6206 29 14.6206C29.6333 14.6206 30.125 14.8789 30.475 15.3956C30.825 15.9123 31 16.6539 31 17.6206C31 18.9706 30.7708 20.3581 30.3125 21.7831C29.8542 23.2081 29.2 24.5706 28.35 25.8706C28.5 26.0539 28.6208 26.1998 28.7125 26.3081C28.8042 26.4164 28.9 26.5206 29 26.6206C29.7667 27.3873 30.2917 28.0164 30.575 28.5081C30.8583 28.9998 31 29.5373 31 30.1206C31 31.3706 30.5625 32.4331 29.6875 33.3081C28.8125 34.1831 27.75 34.6206 26.5 34.6206C25.75 34.6206 25.1458 34.5373 24.6875 34.3706L24 34.1206L23.3125 34.3706C22.8542 34.5373 22.25 34.6206 21.5 34.6206ZM21.5 32.6206C21.8833 32.6206 22.2667 32.5748 22.65 32.4831C23.0333 32.3914 23.3917 32.2539 23.725 32.0706C23.5417 31.9873 23.375 31.8456 23.225 31.6456C23.075 31.4456 23 31.2706 23 31.1206C23 30.9873 23.0958 30.8706 23.2875 30.7706C23.4792 30.6706 23.7167 30.6206 24 30.6206C24.2833 30.6206 24.5208 30.6706 24.7125 30.7706C24.9042 30.8706 25 30.9873 25 31.1206C25 31.2706 24.925 31.4456 24.775 31.6456C24.625 31.8456 24.4583 31.9873 24.275 32.0706C24.6083 32.2539 24.9667 32.3914 25.35 32.4831C25.7333 32.5748 26.1167 32.6206 26.5 32.6206C27.2 32.6206 27.7917 32.3789 28.275 31.8956C28.7583 31.4123 29 30.8206 29 30.1206C29 29.8206 28.9167 29.5289 28.75 29.2456C28.5833 28.9623 28.3333 28.6789 28 28.3956C27.7667 28.1956 27.575 28.0206 27.425 27.8706C27.275 27.7206 27.0333 27.4373 26.7 27.0206C26.2167 26.4373 25.8167 26.0581 25.5 25.8831C25.1833 25.7081 24.6833 25.6206 24 25.6206C23.3167 25.6206 22.8125 25.7081 22.4875 25.8831C22.1625 26.0581 21.7667 26.4373 21.3 27.0206C20.9667 27.4373 20.725 27.7206 20.575 27.8706C20.425 28.0206 20.2333 28.1956 20 28.3956C19.6667 28.6789 19.4167 28.9623 19.25 29.2456C19.0833 29.5289 19 29.8206 19 30.1206C19 30.8206 19.2417 31.4123 19.725 31.8956C20.2083 32.3789 20.8 32.6206 21.5 32.6206ZM22.5 29.3706C22.3667 29.3706 22.25 29.2956 22.15 29.1456C22.05 28.9956 22 28.8206 22 28.6206C22 28.4206 22.05 28.2456 22.15 28.0956C22.25 27.9456 22.3667 27.8706 22.5 27.8706C22.6333 27.8706 22.75 27.9456 22.85 28.0956C22.95 28.2456 23 28.4206 23 28.6206C23 28.8206 22.95 28.9956 22.85 29.1456C22.75 29.2956 22.6333 29.3706 22.5 29.3706ZM25.5 29.3706C25.3667 29.3706 25.25 29.2956 25.15 29.1456C25.05 28.9956 25 28.8206 25 28.6206C25 28.4206 25.05 28.2456 25.15 28.0956C25.25 27.9456 25.3667 27.8706 25.5 27.8706C25.6333 27.8706 25.75 27.9456 25.85 28.0956C25.95 28.2456 26 28.4206 26 28.6206C26 28.8206 25.95 28.9956 25.85 29.1456C25.75 29.2956 25.6333 29.3706 25.5 29.3706ZM21.075 24.3956C21.2583 24.2623 21.4667 24.1456 21.7 24.0456C21.9333 23.9456 22.1917 23.8539 22.475 23.7706C22.4417 22.9706 22.3208 22.1748 22.1125 21.3831C21.9042 20.5914 21.6417 19.8706 21.325 19.2206C21.0083 18.5539 20.6583 17.9914 20.275 17.5331C19.8917 17.0748 19.5083 16.7789 19.125 16.6456C19.0917 16.7456 19.0625 16.8748 19.0375 17.0331C19.0125 17.1914 19 17.3873 19 17.6206C19 18.7539 19.1792 19.9039 19.5375 21.0706C19.8958 22.2373 20.4083 23.3456 21.075 24.3956ZM26.925 24.3956C27.5917 23.3456 28.1042 22.2373 28.4625 21.0706C28.8208 19.9039 29 18.7539 29 17.6206C29 17.3873 28.9875 17.1914 28.9625 17.0331C28.9375 16.8748 28.9083 16.7456 28.875 16.6456C28.4917 16.7789 28.1083 17.0748 27.725 17.5331C27.3417 17.9914 26.9917 18.5539 26.675 19.2206C26.375 19.8706 26.1208 20.5914 25.9125 21.3831C25.7042 22.1748 25.575 22.9706 25.525 23.7706C25.775 23.8373 26.0167 23.9248 26.25 24.0331C26.4833 24.1414 26.7083 24.2623 26.925 24.3956Z" fill="#A2B5CD"/>
</g>
</g>
</g>
</svg>
