<svg width="152" height="38" viewBox="0 0 152 38" fill="none" xmlns="http://www.w3.org/2000/svg">
<g opacity="0.8">
<path d="M103.573 27.8052C104.348 27.8052 104.947 28.0559 105.369 28.5573C105.794 29.0553 105.978 29.7089 105.921 30.5182C105.863 31.3481 105.56 32.0329 105.012 32.5723C104.464 33.1084 103.784 33.3764 102.972 33.3764C102.132 33.3764 101.504 33.0634 101.09 32.4375L100.944 33.2467H99.4937L100.835 26.1297L102.42 26L102.539 26.0778L102.128 28.2409C102.597 27.9504 103.079 27.8052 103.573 27.8052ZM102.772 31.9914C103.208 31.9914 103.564 31.8427 103.838 31.5452C104.112 31.2478 104.249 30.883 104.249 30.4507C104.249 30.0738 104.139 29.7695 103.919 29.5378C103.703 29.3061 103.412 29.1902 103.048 29.1902C102.612 29.1902 102.256 29.3389 101.982 29.6363C101.712 29.9337 101.576 30.2986 101.576 30.7308C101.576 31.1078 101.686 31.4121 101.906 31.6438C102.13 31.8755 102.419 31.9914 102.772 31.9914Z" fill="white"/>
<path d="M112.429 27.9349L112.494 28.0542L109.004 33.5994C108.413 34.5331 107.686 35 106.824 35C106.388 35 106.04 34.9222 105.78 34.7666L105.748 34.6576L106.245 33.6513L106.38 33.5994C106.507 33.6859 106.662 33.7274 106.846 33.7239C107.12 33.7239 107.349 33.5821 107.533 33.2986L107.884 32.7695L106.581 28.0542L106.678 27.9349H108.35L109.015 31.1406L110.865 27.9349H112.429Z" fill="white"/>
</g>
<path d="M16.0356 8.1477L15.311 12.1781C15.1455 13.1112 15.4566 13.5778 16.2441 13.5778C16.6213 13.5778 16.9787 13.4487 17.3162 13.1906L17.5247 13.3197L18.031 15.2058L17.892 15.454C17.1442 15.9834 16.2971 16.2482 15.3507 16.2482C14.2521 16.2482 13.3917 15.9338 12.7696 15.3051C12.1475 14.6698 11.9424 13.73 12.1542 12.4858L12.9483 8.1477H11.2012L11.6082 5.8347H13.3752L13.9212 2.76725L16.8099 2.51907L17.0383 2.66798L16.4625 5.8347H19.3711L18.9641 8.1477H16.0356Z" fill="white"/>
<path d="M26.162 5.58653C27.3533 5.58653 28.2599 6.00015 28.882 6.82741C29.5107 7.65466 29.7093 8.71354 29.4776 10.0041L28.3956 16H25.2487L26.2613 10.2026C26.3804 9.56727 26.301 9.08085 26.023 8.74333C25.7649 8.41904 25.3778 8.2569 24.8616 8.2569C24.1733 8.2569 23.6306 8.49846 23.2335 8.98158C22.949 9.30586 22.767 9.71287 22.6876 10.2026L21.6254 16H18.5182L20.9801 2.38009L23.8887 2.13192L24.1071 2.28082L23.313 6.60901C24.1137 5.92736 25.0634 5.58653 26.162 5.58653Z" fill="white"/>
<path d="M36.2785 5.58653C37.8933 5.58653 39.111 6.10604 39.9316 7.14507C40.7589 8.1841 41.0236 9.43491 40.7258 10.8975C40.6993 11.0762 40.6331 11.3144 40.5272 11.6122H33.1912C33.1382 12.3601 33.3334 12.9325 33.7769 13.3296C34.2269 13.7267 34.8093 13.9252 35.524 13.9252C36.5697 13.9252 37.4995 13.5513 38.3135 12.8035H38.5319L39.6735 14.1536L39.6338 14.3918C38.4029 15.6228 36.884 16.2416 35.0773 16.2482C33.575 16.2482 32.3573 15.775 31.4241 14.8286C30.4976 13.8756 30.084 12.6612 30.1833 11.1854C30.223 10.1662 30.4976 9.2463 31.0072 8.42566C31.5234 7.60503 32.2084 6.94984 33.0621 6.46011C34.0416 5.87772 35.1137 5.58653 36.2785 5.58653ZM33.489 9.77574H37.8866C37.9131 9.25953 37.7907 8.82605 37.5193 8.4753C37.1951 8.02527 36.6855 7.80357 35.9906 7.81018C35.3685 7.81018 34.839 7.98556 34.4023 8.33632C33.9721 8.70031 33.6677 9.18012 33.489 9.77574Z" fill="white"/>
<path d="M53.1957 5.93397L53.295 6.18215L52.2626 8.43559L51.9946 8.57457C51.6306 8.36941 51.2236 8.27014 50.7735 8.27675C49.933 8.27675 49.2911 8.61427 48.8477 9.28931C48.6822 9.54742 48.5035 10.1497 48.3116 11.096L47.4579 16H44.311L46.1376 5.8347H48.7385L48.5002 7.23442C48.851 6.79763 49.215 6.46011 49.5922 6.22186C50.2143 5.80492 50.8794 5.59314 51.5876 5.58653C52.1567 5.58653 52.6928 5.70234 53.1957 5.93397Z" fill="white"/>
<path d="M60.5227 6.5296C61.4558 7.29067 61.7867 8.43559 61.5154 9.96435L60.4433 16H57.9417L58.1402 14.9676C57.2071 15.8213 56.1316 16.2482 54.9139 16.2482C53.8418 16.2482 52.9748 15.9801 52.313 15.4441C51.6578 14.908 51.3302 14.1999 51.3302 13.3197C51.3302 12.1814 51.7736 11.2714 52.6605 10.5898C53.5539 9.90148 54.7253 9.55734 56.1746 9.55734C57.0019 9.55734 57.806 9.7261 58.5869 10.0636L58.6763 9.65661C58.7557 9.15364 58.6531 8.74664 58.3685 8.43559C58.031 8.0716 57.5016 7.8896 56.7802 7.8896C56.3633 7.8896 55.8834 7.98225 55.3408 8.16756C54.7981 8.34624 54.3414 8.57126 53.9708 8.8426H53.7524L52.998 7.25427L53.0377 7.01602C53.6598 6.53952 54.3712 6.18215 55.172 5.9439C55.9728 5.70565 56.7272 5.58653 57.4354 5.58653C58.7457 5.59314 59.7748 5.9075 60.5227 6.5296ZM55.8669 14.2528C56.4361 14.2528 56.9523 14.0675 57.4155 13.6969C57.8854 13.3197 58.1634 12.8895 58.2494 12.4064L58.3288 11.9299C57.7199 11.5924 57.0813 11.4236 56.4129 11.4236C55.7908 11.4236 55.2911 11.5593 54.9139 11.8306C54.5433 12.102 54.358 12.4759 54.358 12.9524C54.358 13.3429 54.4937 13.6572 54.765 13.8955C55.0363 14.1337 55.4036 14.2528 55.8669 14.2528Z" fill="white"/>
<path d="M69.4677 5.58653C70.8906 5.58653 71.9892 6.06633 72.7635 7.02595C73.5444 7.97894 73.882 9.22975 73.7761 10.7784C73.6702 12.3667 73.1143 13.6771 72.1083 14.7095C71.1024 15.7353 69.8549 16.2482 68.3658 16.2482C66.8238 16.2482 65.6723 15.6492 64.9112 14.4514L64.6432 16H61.9827L64.4447 2.38009L67.3533 2.13192L67.5717 2.28082L66.8172 6.4204C67.6776 5.86448 68.5611 5.58653 69.4677 5.58653ZM67.9985 13.5976C68.7993 13.5976 69.4512 13.3131 69.9542 12.7439C70.4571 12.1748 70.7086 11.4766 70.7086 10.6493C70.7086 9.92795 70.5068 9.34557 70.1031 8.90216C69.706 8.45875 69.1732 8.23705 68.5048 8.23705C67.704 8.23705 67.0522 8.52162 66.5492 9.09077C66.0528 9.65992 65.8047 10.3581 65.8047 11.1854C65.8047 11.9067 66.0065 12.4891 66.4102 12.9325C66.8205 13.3759 67.35 13.5976 67.9985 13.5976Z" fill="white"/>
<path d="M81.3611 5.58653C82.784 5.58653 83.8826 6.06633 84.6569 7.02595C85.4378 7.97894 85.7754 9.22975 85.6695 10.7784C85.5636 12.3667 85.0077 13.6771 84.0017 14.7095C82.9958 15.7353 81.7483 16.2482 80.2592 16.2482C78.7172 16.2482 77.5657 15.6492 76.8046 14.4514L76.5366 16H73.8761L76.3381 2.38009L79.2467 2.13192L79.4651 2.28082L78.7106 6.4204C79.571 5.86448 80.4545 5.58653 81.3611 5.58653ZM79.8919 13.5976C80.6927 13.5976 81.3446 13.3131 81.8476 12.7439C82.3505 12.1748 82.602 11.4766 82.602 10.6493C82.602 9.92795 82.4002 9.34557 81.9965 8.90216C81.5994 8.45875 81.0666 8.23705 80.3982 8.23705C79.5974 8.23705 78.9456 8.52162 78.4426 9.09077C77.9462 9.65992 77.6981 10.3581 77.6981 11.1854C77.6981 11.9067 77.8999 12.4891 78.3036 12.9325C78.7139 13.3759 79.2434 13.5976 79.8919 13.5976Z" fill="white"/>
<path d="M89.3433 4.20667C88.8668 4.20667 88.4598 4.04122 88.1222 3.71032C87.7847 3.37941 87.616 2.97572 87.616 2.49922C87.616 1.90359 87.8344 1.39401 88.2711 0.970453C88.7145 0.540281 89.2374 0.325195 89.8396 0.325195C90.3029 0.325195 90.7033 0.497264 91.0408 0.841401C91.3783 1.18554 91.5471 1.58924 91.5471 2.0525C91.5471 2.64812 91.3287 3.15771 90.8919 3.58126C90.4551 3.9982 89.9389 4.20667 89.3433 4.20667ZM85.7894 16L87.616 5.8347H90.7529L88.9164 16H85.7894Z" fill="white"/>
<path d="M95.9158 8.1477L95.1911 12.1781C95.0256 13.1112 95.3367 13.5778 96.1242 13.5778C96.5015 13.5778 96.8588 13.4487 97.1964 13.1906L97.4048 13.3197L97.9111 15.2058L97.7721 15.454C97.0243 15.9834 96.1772 16.2482 95.2308 16.2482C94.1322 16.2482 93.2719 15.9338 92.6498 15.3051C92.0277 14.6698 91.8225 13.73 92.0343 12.4858L92.8285 8.1477H91.0813L91.4883 5.8347H93.2553L93.8013 2.76725L96.6901 2.51907L96.9184 2.66798L96.3426 5.8347H99.2512L98.8442 8.1477H95.9158Z" fill="white"/>
<path d="M109.537 5.58653C110.728 5.58653 111.635 6.00015 112.257 6.82741C112.886 7.65466 113.085 8.71354 112.853 10.0041L111.771 16H108.624L109.637 10.2026C109.756 9.56727 109.676 9.08085 109.398 8.74333C109.14 8.41904 108.753 8.2569 108.237 8.2569C107.549 8.2569 107.006 8.49846 106.609 8.98158C106.324 9.30586 106.142 9.71287 106.063 10.2026L105.001 16H101.893L104.355 2.38009L107.264 2.13192L107.482 2.28082L106.688 6.60901C107.489 5.92736 108.439 5.58653 109.537 5.58653Z" fill="white"/>
<path d="M118.611 16.2482C117.149 16.2482 115.934 15.7882 114.968 14.8683C114.009 13.9418 113.529 12.7605 113.529 11.3244C113.529 10.3647 113.737 9.48454 114.154 8.68376C114.578 7.88298 115.17 7.22449 115.931 6.70828C117.003 5.96045 118.204 5.58653 119.535 5.58653C121.01 5.58653 122.225 6.04648 123.178 6.96639C124.137 7.87967 124.617 9.06099 124.617 10.5103C124.617 12.3237 123.919 13.8028 122.523 14.9477C121.417 15.8147 120.114 16.2482 118.611 16.2482ZM118.84 13.5976C119.561 13.5976 120.17 13.3693 120.666 12.9127C121.275 12.3435 121.58 11.5957 121.58 10.6692C121.58 9.94781 121.364 9.36211 120.934 8.91209C120.511 8.46206 119.975 8.23705 119.326 8.23705C118.605 8.23705 117.996 8.46537 117.5 8.92201C116.891 9.49116 116.586 10.239 116.586 11.1655C116.586 11.8869 116.798 12.4726 117.222 12.9226C117.652 13.3726 118.191 13.5976 118.84 13.5976Z" fill="white"/>
<path d="M124.727 16L127.189 2.38009L130.118 2.13192L130.336 2.28082L127.854 16H124.727Z" fill="white"/>
<path d="M135.896 5.58653C137.511 5.58653 138.728 6.10604 139.549 7.14507C140.376 8.1841 140.641 9.43491 140.343 10.8975C140.317 11.0762 140.251 11.3144 140.145 11.6122H132.809C132.756 12.3601 132.951 12.9325 133.394 13.3296C133.844 13.7267 134.427 13.9252 135.141 13.9252C136.187 13.9252 137.117 13.5513 137.931 12.8035H138.149L139.291 14.1536L139.251 14.3918C138.02 15.6228 136.501 16.2416 134.695 16.2482C133.192 16.2482 131.975 15.775 131.042 14.8286C130.115 13.8756 129.701 12.6612 129.801 11.1854C129.84 10.1662 130.115 9.2463 130.625 8.42566C131.141 7.60503 131.826 6.94984 132.68 6.46011C133.659 5.87772 134.731 5.58653 135.896 5.58653ZM133.106 9.77574H137.504C137.531 9.25953 137.408 8.82605 137.137 8.4753C136.813 8.02527 136.303 7.80357 135.608 7.81018C134.986 7.81018 134.456 7.98556 134.02 8.33632C133.59 8.70031 133.285 9.18012 133.106 9.77574Z" fill="white"/>
<path opacity="0.8" fill-rule="evenodd" clip-rule="evenodd" d="M135.485 32.4659C135.369 32.4374 135.272 32.4089 135.185 32.3709C135.121 32.3428 135.067 32.3096 135.02 32.2711C134.988 32.2456 134.975 32.2053 134.979 32.1655C135.026 31.6885 134.974 31.2677 135.021 30.7947C135.214 28.8766 136.442 29.4843 137.544 29.1709C138.177 28.9958 138.81 28.6512 139.041 27.9733C139.079 27.8624 139.046 27.7417 138.967 27.6538C138.245 26.8476 137.446 26.1352 136.577 25.5246C133.666 23.4887 129.881 22.6433 126.406 23.1378C126.274 23.1566 126.205 23.2998 126.277 23.4097C126.717 24.0823 127.298 24.6328 127.964 25.038C128.085 25.1116 128.036 25.2706 127.897 25.2401C127.571 25.1681 127.151 25.0279 126.757 24.7544C126.719 24.7281 126.67 24.7214 126.626 24.7384C126.45 24.8074 126.195 24.9071 125.985 24.9963C125.864 25.0477 125.839 25.2012 125.939 25.2861C127.684 26.772 130.223 26.9979 132.212 25.8088C132.333 25.7364 132.527 25.8852 132.488 26.0191C132.425 26.2336 132.352 26.5284 132.275 26.93C131.782 29.3798 130.36 29.1899 128.6 28.5727C125.084 27.3211 123.089 28.3899 121.316 26.2742C121.192 26.1272 120.976 26.0762 120.829 26.2009C120.463 26.5122 120.246 26.9666 120.246 27.4522C120.246 28.0275 120.549 28.5203 120.997 28.8152C121.053 28.8521 121.128 28.8365 121.169 28.7845C121.279 28.6488 121.368 28.5588 121.479 28.5019C121.601 28.4396 121.66 28.6107 121.558 28.7C121.181 29.0276 121.073 29.4178 120.827 30.1869C120.44 31.3929 120.604 32.6273 118.796 32.9501C117.839 32.9976 117.858 33.6338 117.51 34.5834C117.106 35.7294 116.577 36.2371 115.598 37.2386C115.464 37.3756 115.453 37.5946 115.6 37.7178C115.991 38.0451 116.394 38.0631 116.804 37.8973C117.82 37.4795 118.603 36.1881 119.338 35.3525C120.159 34.4219 122.132 34.8208 123.621 33.9092C124.424 33.4256 124.906 32.8079 124.752 31.8826C124.727 31.7335 124.901 31.644 124.964 31.7817C125.083 32.0433 125.162 32.3223 125.194 32.6106C125.203 32.6862 125.272 32.7421 125.349 32.7378C126.96 32.6489 129.043 34.3939 130.99 34.8661C131.109 34.8948 131.193 34.7605 131.126 34.6603C131.003 34.4761 130.898 34.2849 130.815 34.0896C130.729 33.8867 130.663 33.6897 130.617 33.4997C130.581 33.3511 130.802 33.3111 130.878 33.4447C131.377 34.3286 132.375 35.1586 133.764 35.2575C134.237 35.2955 134.76 35.2386 135.301 35.0771C135.949 34.8872 136.548 34.6403 137.264 34.7733C137.796 34.8682 138.289 35.1341 138.598 35.5804C139.032 36.2022 139.949 36.367 140.437 35.7171C140.504 35.6286 140.509 35.5104 140.465 35.4093C139.39 32.9334 136.659 32.7634 135.485 32.4659Z" fill="white"/>
<path d="M6.5717 17.3626H5.65841C4.02045 17.3626 2.87884 17.0549 2.25344 16.4494C1.61811 15.8339 1.30044 14.7022 1.30044 13.0444V11.5851C1.30044 10.8604 1.23095 10.3641 1.09197 10.0762C0.943069 9.78831 0.585695 9.64933 0 9.64933V7.70363C0.585695 7.70363 0.943069 7.56465 1.09197 7.27677C1.23095 6.98888 1.30044 6.49253 1.30044 5.76785V4.28873C1.30044 2.65076 1.61811 1.51908 2.25344 0.913532C2.87884 0.307982 4.02045 0.000244141 5.65841 0.000244141H6.5717V2.17427H6.08528C5.34075 2.17427 4.8444 2.28346 4.59622 2.50186C4.34804 2.73018 4.22892 3.27617 4.22892 4.15967V6.56202C4.22892 7.19735 4.05023 7.70363 3.70279 8.09078C3.35534 8.47794 2.90862 8.67648 2.36264 8.67648C2.90862 8.67648 3.35534 8.86509 3.70279 9.25225C4.05023 9.6394 4.22892 10.1556 4.22892 10.7909V13.1933C4.22892 14.0768 4.34804 14.6228 4.59622 14.8412C4.8444 15.0695 5.34075 15.1787 6.08528 15.1787H6.5717V17.3626Z" fill="white"/>
<path d="M147.323 6.56202V4.15967C147.323 3.27617 147.204 2.73018 146.955 2.50186C146.707 2.28346 146.211 2.17427 145.466 2.17427H144.98V0.000244141H145.893C147.531 0.000244141 148.673 0.307982 149.308 0.913532C149.934 1.51908 150.251 2.65076 150.251 4.28873V5.76785C150.251 6.49253 150.321 6.98888 150.47 7.27677C150.609 7.56465 150.966 7.70363 151.552 7.70363V9.64933C150.966 9.64933 150.609 9.78831 150.47 10.0762C150.321 10.3641 150.251 10.8604 150.251 11.5851V13.0444C150.251 14.7022 149.934 15.8339 149.308 16.4494C148.673 17.0549 147.531 17.3626 145.893 17.3626H144.98V15.1787H145.466C146.211 15.1787 146.707 15.0695 146.955 14.8412C147.204 14.6228 147.323 14.0768 147.323 13.1933V10.7909C147.323 10.1556 147.501 9.6394 147.849 9.25225C148.196 8.86509 148.643 8.67648 149.189 8.67648C148.643 8.67648 148.196 8.47794 147.849 8.09078C147.501 7.70363 147.323 7.19735 147.323 6.56202Z" fill="white"/>
</svg>
