<?xml version="1.0" standalone="no"?>
<!DOCTYPE svg PUBLIC "-//W3C//DTD SVG 20010904//EN"
 "http://www.w3.org/TR/2001/REC-SVG-20010904/DTD/svg10.dtd">
<svg version="1.0" xmlns="http://www.w3.org/2000/svg"
 width="700.000000pt" height="700.000000pt" viewBox="0 0 700.000000 700.000000"
 preserveAspectRatio="xMidYMid meet">
<metadata>
Created by potrace 1.14, written by Peter Selinger 2001-2017
</metadata>
<g transform="translate(0.000000,700.000000) scale(0.100000,-0.100000)"
fill="#000000" stroke="none">
<path d="M906 6989 c-383 -56 -708 -316 -837 -669 -69 -191 -64 46 -64 -2820
0 -2388 1 -2591 17 -2660 101 -452 448 -771 902 -830 56 -7 879 -10 2631 -7
2821 3 2576 -3 2765 67 331 120 578 409 658 770 16 69 17 277 17 2660 0 2383
-1 2591 -17 2660 -80 360 -329 652 -656 770 -193 70 58 64 -2787 66 -1417 1
-2597 -2 -2629 -7z m3044 -1725 c622 -70 1179 -299 1661 -682 103 -82 372
-344 401 -389 25 -42 20 -78 -23 -144 -44 -69 -100 -116 -193 -160 -94 -45
-179 -64 -326 -74 -139 -10 -215 -33 -262 -82 -78 -80 -107 -202 -108 -450 l0
-161 43 -20 c23 -11 129 -39 236 -62 332 -71 506 -139 675 -266 49 -37 114
-98 145 -136 66 -81 148 -219 157 -264 8 -43 -21 -84 -84 -121 -39 -23 -59
-28 -117 -28 -94 0 -158 36 -235 129 -104 128 -230 187 -395 188 -91 0 -139
-10 -357 -75 -280 -83 -544 -47 -765 104 -69 48 -175 159 -218 228 -39 63 -53
74 -75 61 -22 -13 3 -99 62 -219 47 -96 50 -105 34 -117 -37 -26 -200 38 -611
243 -368 183 -500 233 -637 241 -49 2 -92 10 -96 16 -5 6 -14 40 -21 76 -16
83 -45 150 -65 150 -19 0 -18 8 -20 -110 -1 -84 -5 -103 -33 -162 -72 -152
-244 -276 -477 -343 -48 -14 -175 -41 -281 -60 -339 -61 -386 -85 -537 -277
-229 -291 -308 -376 -415 -445 -124 -79 -228 -88 -324 -27 -46 28 -64 62 -55
98 3 14 58 80 122 148 64 68 138 152 165 188 73 97 142 238 197 406 27 82 56
163 65 179 31 61 112 115 170 115 90 0 245 70 311 140 65 70 99 148 145 340
69 285 126 434 190 494 34 33 41 66 14 66 -10 0 -36 -19 -59 -41 l-42 -42 -37
23 c-50 31 -118 125 -139 195 -40 127 -1 288 93 379 63 61 85 56 187 -48 137
-139 267 -211 456 -255 45 -11 209 -36 363 -55 379 -47 596 -94 804 -172 93
-35 235 -72 324 -84 193 -27 338 43 424 206 39 73 61 148 103 338 47 209 40
216 -132 132 -353 -172 -755 -165 -1109 21 -110 57 -233 151 -237 181 -4 25
31 49 120 83 l60 22 76 -41 c81 -42 208 -86 223 -76 20 12 6 35 -42 68 -114
77 -263 225 -330 328 -24 37 -28 50 -20 66 13 24 28 28 171 41 236 23 446 21
680 -5z"/>
</g>
</svg>
