<svg width="61" height="64" viewBox="0 0 61 64" fill="none" xmlns="http://www.w3.org/2000/svg">
<path d="M42.76 48.78C50.824 47.82 57.84 42.88 58.72 38.368C60.112 31.256 60 21.012 60 21.012C60 7.132 50.856 3.06 50.856 3.06C46.248 0.952 38.332 0.068 30.108 0H29.908C21.68 0.068 13.768 0.952 9.16004 3.06C9.16004 3.06 0.0200379 7.128 0.0200379 21.012L0.012038 23.66C-0.00396204 26.22 -0.0159621 29.06 0.0560379 32.024C0.388038 45.6 2.56004 58.984 15.176 62.304C20.992 63.836 25.988 64.156 30.012 63.936C37.304 63.536 41.4 61.348 41.4 61.348L41.16 56.08C41.16 56.08 35.948 57.72 30.092 57.52C24.292 57.32 18.172 56.896 17.232 49.808C17.1426 49.1505 17.0985 48.4876 17.1 47.824C17.1 47.824 22.796 49.208 30.012 49.536C34.424 49.736 38.56 49.28 42.764 48.78H42.76ZM49.212 38.9H42.52V22.58C42.52 19.144 41.064 17.4 38.156 17.4C34.94 17.4 33.328 19.468 33.328 23.564V32.496H26.672V23.56C26.672 19.464 25.06 17.396 21.844 17.396C18.936 17.396 17.48 19.14 17.48 22.58V38.896H10.788V22.088C10.788 18.652 11.668 15.924 13.428 13.904C15.252 11.884 17.636 10.848 20.6 10.848C24.024 10.848 26.616 12.16 28.332 14.78L30 17.56L31.668 14.78C33.384 12.16 35.976 10.848 39.404 10.848C42.364 10.848 44.748 11.884 46.568 13.904C48.336 15.924 49.212 18.652 49.212 22.088V38.9Z" fill="#A2B5CD"/>
</svg>
