<svg width="34" height="23" viewBox="0 0 34 23" fill="none" xmlns="http://www.w3.org/2000/svg"><path fill-rule="evenodd" clip-rule="evenodd" d="M22.23 10.54H18.8v-3.1h3.43v3.1zm-4.05 0h-3.44v-3.1h3.44v3.1zm-4.06 0H10.7v-3.1h3.43v3.1zm-4.05 0H6.63v-3.1h3.43v3.1zm-4.06 0H2.58v-3.1H6v3.1zm4.05-3.72H6.63v-3.1h3.43v3.1zm4.06 0H10.7v-3.1h3.43v3.1zm4.06 0h-3.44v-3.1h3.44v3.1zm0-3.72h-3.44V0h3.44v3.1zm10.57 5.2zm-2.13-3.29a4.99 4.99 0 012.13 3.3c1.33-.25 3.05-.07 3.8.43l.7.46-.13.24-.32.64c-1.23 2.34-3.63 2.35-4.74 2.33-2.83 6.8-8.88 10.54-17.06 10.54-3.77 0-6.66-1.15-8.59-3.42a10.91 10.91 0 01-2.33-8.1l.05-.27H22.7c1.18.03 2.07-.3 2.52-.54a4.39 4.39 0 01-.64-1.9 5.6 5.6 0 01.83-3.46l.48-.73.73.48z" fill="#fff"></path></svg>
