<svg width="64" height="64" viewBox="0 0 64 64" fill="none" xmlns="http://www.w3.org/2000/svg">
<g clip-path="url(#clip0_682_6)">
<path fill-rule="evenodd" clip-rule="evenodd" d="M64 32C64 49.6731 49.6731 64 32 64C14.3269 64 0 49.6731 0 32C0 14.3269 14.3269 0 32 0C49.6731 0 64 14.3269 64 32ZM48.6333 27.6507C51.1898 27.6507 53.2875 29.711 53.2875 32.305C53.2875 34.2122 52.1433 35.8527 50.5413 36.5782C50.6172 37.0449 50.6555 37.5169 50.6558 37.9897C50.6558 45.1997 42.3008 50.9987 32.0003 50.9987C21.7 50.9987 13.345 45.1612 13.345 37.9897C13.3434 37.5168 13.3817 37.0447 13.4595 36.5782C11.8568 35.8527 10.7125 34.2507 10.7125 32.3435C10.7125 29.787 12.7725 27.6892 15.3668 27.6892C16.5745 27.6874 17.7362 28.1521 18.6095 28.9862C21.852 26.6587 26.3158 25.1712 31.275 25.0182L33.641 13.8787C33.6788 13.6497 33.793 13.4592 33.9838 13.3447C34.1365 13.2302 34.3655 13.1917 34.5945 13.2302L42.3385 14.8707C42.8725 13.7642 44.0175 13.0012 45.3145 13.0012C47.1458 13.0012 48.6333 14.489 48.6333 16.32C48.6333 18.152 47.1455 19.6395 45.3145 19.6395C43.521 19.6395 42.0718 18.2277 41.995 16.4727L35.0518 14.9852L32.9158 24.9805C37.7988 25.1712 42.1863 26.6587 45.3908 28.948C46.264 28.1138 47.4256 27.6491 48.6333 27.6507ZM24.6375 32.305C22.8055 32.305 21.318 33.7927 21.318 35.6237C21.318 37.455 22.8058 38.9807 24.6375 38.9432C26.4688 38.9432 27.9563 37.455 27.9563 35.6237C27.9563 33.7925 26.4685 32.305 24.6375 32.305ZM32.0003 46.8785C33.259 46.8785 37.6083 46.7257 39.8973 44.4365C40.2023 44.0932 40.2023 43.559 39.8973 43.2157C39.5538 42.873 39.0198 42.873 38.6763 43.2157C37.2648 44.6655 34.175 45.1612 32.0003 45.1612C29.8258 45.1612 26.7738 44.6657 25.3238 43.2157C24.9803 42.873 24.4463 42.873 24.1028 43.2157C23.76 43.559 23.76 44.0932 24.1028 44.4365C26.3543 46.6872 30.7033 46.8785 32.0003 46.8785ZM35.9678 35.6622C35.9678 37.4935 37.4553 38.981 39.2865 38.981C41.1183 38.981 42.6058 37.4547 42.6058 35.6622C42.6058 33.831 41.1183 32.3435 39.2865 32.3435C37.4553 32.3435 35.9678 33.831 35.9678 35.6622Z" fill="#A2B5CD"/>
</g>
<defs>
<clipPath id="clip0_682_6">
<rect width="64" height="64" fill="white"/>
</clipPath>
</defs>
</svg>
