<svg class="twitter" width="25" height="20" viewBox="0 0 25 20" preserveAspectRatio="xMidYMid meet" fill="none" xmlns="http://www.w3.org/2000/svg"><path d="M7.74 20c9.29 0 14.37-7.696 14.37-14.368 0-.219 0-.437-.015-.653.989-.716 1.842-1.601 2.52-2.615a10.08 10.08 0 01-2.9.795 5.07 5.07 0 002.22-2.794 10.12 10.12 0 01-3.208 1.227 5.054 5.054 0 00-8.605 4.605A14.337 14.337 0 011.714.921a5.054 5.054 0 001.56 6.743A5.013 5.013 0 01.998 7.03v.064c0 2.401 1.69 4.47 4.042 4.95a5.043 5.043 0 01-2.281.086 5.056 5.056 0 004.719 3.51 10.14 10.14 0 01-6.273 2.157c-.403 0-.805-.023-1.205-.07a14.296 14.296 0 007.74 2.267" fill="#fff"></path></svg>
