<svg width="43" height="30" viewBox="0 0 43 30" preserveAspectRatio="xMidYMid meet" fill="none" xmlns="http://www.w3.org/2000/svg"><path fill-rule="evenodd" clip-rule="evenodd" d="M16.8846 21.3312V8.66879L27.9803 15.0002L16.8846 21.3312ZM41.5657 4.6846C41.0775 2.84056 39.6389 1.38847 37.8124 0.895645C34.5019 0 21.2264 0 21.2264 0C21.2264 0 7.95098 0 4.64038 0.895645C2.81395 1.38847 1.37538 2.84056 0.887168 4.6846C0 8.02669 0 15 0 15C0 15 0 21.9731 0.887168 25.3154C1.37538 27.1594 2.81395 28.6115 4.64038 29.1046C7.95098 30 21.2264 30 21.2264 30C21.2264 30 34.5019 30 37.8124 29.1046C39.6389 28.6115 41.0775 27.1594 41.5657 25.3154C42.4528 21.9731 42.4528 15 42.4528 15C42.4528 15 42.4528 8.02669 41.5657 4.6846Z" fill="currentColor"></path></svg>
